:SAMPLES-PER-SECOND 24
:FULLY-SPECIFIED
:DEGREES
203
root  2.22524 39.249 26.3429 175.976 -50.1012 179.317
RightUpLeg  -19.3159 -19.088 -16.7834
RightLeg  17.5733 9.04586 2.99728
RightFoot  14.2935 -1.78164 8.25509
RightToes  -1.46203e-006 3.27826e-006 1.63871e-007
Spine  8.44509 -1.49228 -4.66183
Spine1  3.53164 -2.89523 4.91783
HEad  -6.32749 -27.0145 10.9749
LeftShoulder1  0.78789 -2.80115 -4.59529
LeftArm  22.1626 -49.3303 -77.6443
LeftForeArm  82.2415 -79.6981 -86.288
LeftHand  -0.433379 3.61579 28.0747
RightShoulder  0.685561 1.23041 6.87677
RightArm  -51.1671 31.0769 14.8706
RightForeArm  32.9641 72.7143 35.5387
RightHand  -1.18451 -0.836778 -29.7432
LeftUpLeg  7.35747 7.56463 13.5673
LeftLeg  17.9243 -7.55258 -2.48973
LeftFoot  -9.66852 0.288998 -15.7623
LeftToes  1.24767e-006 1.47042e-008 1.32732e-009
204
root  2.27367 37.8592 26.5428 176.257 -47.7039 178.906
RightUpLeg  -20.6644 -18.1547 -18.5701
RightLeg  9.47972 1.64524 2.00466
RightFoot  9.1246 -1.21382 7.05577
RightToes  -1.46203e-006 3.27826e-006 1.63871e-007
Spine  9.66322 -1.03913 -3.56586
Spine1  5.78882 -2.14473 3.315
HEad  -11.7107 -26.2539 11.8131
LeftShoulder1  0.96567 -3.1314 -6.93505
LeftArm  22.9085 -51.5933 -77.0286
LeftForeArm  81.9313 -79.6462 -87.3601
LeftHand  -0.215575 4.5012 27.8669
RightShoulder  0.841581 1.6265 9.03446
RightArm  -56.0894 32.2502 9.33986
RightForeArm  46.0379 76.1477 47.1332
RightHand  -0.818327 -2.1465 -28.845
LeftUpLeg  5.7896 11.1926 13.9782
LeftLeg  24.7401 -7.33535 -3.3252
LeftFoot  -20.6025 -1.08224 -14.8425
LeftToes  1.24767e-006 1.47042e-008 1.32732e-009
205
root  2.35993 36.5053 26.3051 177.545 -43.8587 177.082
RightUpLeg  -23.4331 -16.4476 -20.0131
RightLeg  5.17252 -7.89565 2.17424
RightFoot  4.2449 -0.707893 5.3612
RightToes  -1.46203e-006 3.27826e-006 1.63871e-007
Spine  8.60892 -0.392065 -4.92595
Spine1  11.4497 -1.59878 2.44302
HEad  -18.0261 -24.399 13.5007
LeftShoulder1  1.07568 -2.57368 -10.4441
LeftArm  24.7305 -52.8275 -76.7491
LeftForeArm  77.7034 -79.5384 -84.8393
LeftHand  -0.0707248 5.089 25.8491
RightShoulder  1.1268 2.2744 12.5042
RightArm  -57.6825 30.6713 8.01716
RightForeArm  109.044 79.3657 106.969
RightHand  -0.680087 -2.4902 -26.7881
LeftUpLeg  3.72578 14.4749 13.6876
LeftLeg  33.368 -6.64489 -4.32432
LeftFoot  -28.2804 -2.02589 -14.6287
LeftToes  1.24767e-006 1.47042e-008 1.32732e-009
206
root  2.26126 35.7928 25.3266 178.938 -38.8327 174.97
RightUpLeg  -26.9074 -18.5379 -18.5131
RightLeg  6.31637 -13.8037 2.47494
RightFoot  3.07025 -0.432104 3.57626
RightToes  -1.46203e-006 3.27826e-006 1.63871e-007
Spine  6.36663 -0.442611 -6.37559
Spine1  15.2507 -1.29748 0.966964
HEad  -19.8801 -21.754 13.6416
LeftShoulder1  1.14434 -2.44809 -12.1124
LeftArm  26.2958 -52.2031 -78.038
LeftForeArm  65.9779 -79.1133 -73.2312
LeftHand  -0.133645 4.7435 23.4273
RightShoulder  1.56896 3.27081 16.5016
RightArm  -51.2834 25.3568 14.4382
RightForeArm  159.899 69.3489 152.521
RightHand  -0.708218 -1.74314 -22.3485
LeftUpLeg  6.08964 17.7168 14.1081
LeftLeg  34.9927 -5.45479 -3.689
LeftFoot  -30.2634 -2.49903 -15.9876
LeftToes  1.24767e-006 1.47042e-008 1.32732e-009
207
root  1.88271 35.8355 23.6045 178.971 -33.4006 174.081
RightUpLeg  -30.0231 -24.8495 -12.8413
RightLeg  10.5792 -9.16027 2.10648
RightFoot  4.94163 -0.164198 1.38388
RightToes  -1.46203e-006 3.27826e-006 1.63871e-007
Spine  4.32301 -1.79292 -6.86437
Spine1  15.0867 -2.47548 0.226005
HEad  -15.9145 -17.2244 8.22972
LeftShoulder1  1.25461 -2.91927 -12.4586
LeftArm  27.9887 -54.4474 -81.2505
LeftForeArm  54.892 -78.1582 -60.8858
LeftHand  -0.450496 3.22324 23.8772
RightShoulder  1.98981 4.08337 19.8489
RightArm  -40.8335 18.7575 22.0331
RightForeArm  173.986 59.6521 163.397
RightHand  -0.722679 -0.712008 -17.8748
LeftUpLeg  14.0363 18.7114 14.6541
LeftLeg  27.8512 -2.54116 -1.09949
LeftFoot  -28.3727 -2.58032 -18.234
LeftToes  1.24767e-006 1.47042e-008 1.32732e-009
